
<svg width="277" height="31" viewBox="0 0 277 31" fill="none" xmlns="http://www.w3.org/2000/svg">
<path d="M28.568 10.008C31.1627 10.008 33.048 10.5493 34.224 11.632C35.4187 12.7147 36.016 14.208 36.016 16.112C36.016 17.2507 35.7733 18.324 35.288 19.332C34.8027 20.3213 33.9813 21.124 32.824 21.74C31.6853 22.3373 30.136 22.636 28.176 22.636H26.188V30H22.604V10.008H28.568ZM28.344 12.976H26.188V19.668H27.812C29.268 19.668 30.388 19.4067 31.172 18.884C31.9747 18.3427 32.376 17.4653 32.376 16.252C32.376 15.1507 32.0493 14.3293 31.396 13.788C30.7427 13.2467 29.7253 12.976 28.344 12.976ZM51.3079 30H39.9399V10.008H51.3079V13.004H43.5239V18.1H50.8039V21.096H43.5239V26.976H51.3079V30ZM61.5172 10.008C64.1119 10.008 65.9972 10.5493 67.1732 11.632C68.3679 12.7147 68.9652 14.208 68.9652 16.112C68.9652 17.2507 68.7226 18.324 68.2372 19.332C67.7519 20.3213 66.9306 21.124 65.7732 21.74C64.6346 22.3373 63.0852 22.636 61.1252 22.636H59.1372V30H55.5532V10.008H61.5172ZM61.2932 12.976H59.1372V19.668H60.7612C62.2172 19.668 63.3372 19.4067 64.1212 18.884C64.9239 18.3427 65.3252 17.4653 65.3252 16.252C65.3252 15.1507 64.9986 14.3293 64.3452 13.788C63.6919 13.2467 62.6746 12.976 61.2932 12.976ZM78.8532 10.008C81.4478 10.008 83.3332 10.5493 84.5092 11.632C85.7038 12.7147 86.3012 14.208 86.3012 16.112C86.3012 17.2507 86.0585 18.324 85.5732 19.332C85.0878 20.3213 84.2665 21.124 83.1092 21.74C81.9705 22.3373 80.4212 22.636 78.4612 22.636H76.4732V30H72.8892V10.008H78.8532ZM78.6292 12.976H76.4732V19.668H78.0972C79.5532 19.668 80.6732 19.4067 81.4572 18.884C82.2598 18.3427 82.6612 17.4653 82.6612 16.252C82.6612 15.1507 82.3345 14.3293 81.6812 13.788C81.0278 13.2467 80.0105 12.976 78.6292 12.976ZM101.593 30H90.2251V10.008H101.593V13.004H93.8091V18.1H101.089V21.096H93.8091V26.976H101.593V30ZM111.522 10.008C114.154 10.008 116.096 10.4933 117.346 11.464C118.616 12.4347 119.25 13.9093 119.25 15.888C119.25 16.8587 119.064 17.6893 118.69 18.38C118.336 19.0707 117.869 19.6493 117.29 20.116C116.712 20.564 116.086 20.928 115.414 21.208L121.154 30H117.122L112.334 22.104H109.422V30H105.838V10.008H111.522ZM111.298 13.004H109.422V19.164H111.41C112.885 19.164 113.949 18.9027 114.602 18.38C115.274 17.8387 115.61 17.0453 115.61 16C115.61 14.9173 115.256 14.152 114.546 13.704C113.856 13.2373 112.773 13.004 111.298 13.004ZM132.536 30L127.048 13.62H126.936C126.955 13.9933 126.983 14.5253 127.02 15.216C127.057 15.888 127.085 16.6253 127.104 17.428C127.141 18.212 127.16 18.9493 127.16 19.64V30H123.94V10.008H128.924L134.188 25.716H134.3L139.788 10.008H144.772V30H141.356V19.472C141.356 18.8373 141.365 18.1467 141.384 17.4C141.421 16.6347 141.449 15.916 141.468 15.244C141.505 14.572 141.533 14.04 141.552 13.648H141.44L135.728 30H132.536ZM156.72 30H148.32V27.956L150.728 27.06V12.976L148.32 12.052V10.008H156.72V12.052L154.312 12.976V27.06L156.72 27.956V30ZM177.303 30H172.851L163.387 14.32H163.275C163.331 15.16 163.378 16.0653 163.415 17.036C163.471 17.988 163.508 18.9493 163.527 19.92V30H160.307V10.008H164.731L174.167 25.576H174.251C174.214 24.8293 174.176 23.9707 174.139 23C174.102 22.0293 174.074 21.0867 174.055 20.172V10.008H177.303V30ZM189.678 30H186.094V13.032H180.354V10.008H195.418V13.032H189.678V30ZM206.823 30H203.295V17.54C203.295 16.9427 203.304 16.308 203.323 15.636C203.342 14.964 203.37 14.3387 203.407 13.76C203.22 13.9467 202.987 14.1707 202.707 14.432C202.427 14.6747 202.138 14.9267 201.839 15.188L199.599 16.98L197.835 14.796L203.883 10.008H206.823V30ZM226.738 20.004C226.738 22.1507 226.514 23.9893 226.066 25.52C225.618 27.0507 224.89 28.2267 223.882 29.048C222.874 29.8693 221.54 30.28 219.878 30.28C217.526 30.28 215.8 29.3747 214.698 27.564C213.597 25.7347 213.046 23.2147 213.046 20.004C213.046 17.8387 213.27 15.9907 213.718 14.46C214.166 12.9293 214.885 11.7533 215.874 10.932C216.882 10.1107 218.217 9.7 219.878 9.7C222.212 9.7 223.938 10.6053 225.058 12.416C226.178 14.2267 226.738 16.756 226.738 20.004ZM216.602 20.004C216.602 22.4493 216.836 24.288 217.302 25.52C217.788 26.752 218.646 27.368 219.878 27.368C221.092 27.368 221.941 26.7613 222.426 25.548C222.93 24.316 223.182 22.468 223.182 20.004C223.182 17.54 222.93 15.692 222.426 14.46C221.941 13.228 221.092 12.612 219.878 12.612C218.646 12.612 217.788 13.228 217.302 14.46C216.836 15.692 216.602 17.54 216.602 20.004ZM242.762 20.004C242.762 22.1507 242.538 23.9893 242.09 25.52C241.642 27.0507 240.914 28.2267 239.906 29.048C238.898 29.8693 237.563 30.28 235.902 30.28C233.55 30.28 231.823 29.3747 230.722 27.564C229.621 25.7347 229.07 23.2147 229.07 20.004C229.07 17.8387 229.294 15.9907 229.742 14.46C230.19 12.9293 230.909 11.7533 231.898 10.932C232.906 10.1107 234.241 9.7 235.902 9.7C238.235 9.7 239.962 10.6053 241.082 12.416C242.202 14.2267 242.762 16.756 242.762 20.004ZM232.626 20.004C232.626 22.4493 232.859 24.288 233.326 25.52C233.811 26.752 234.67 27.368 235.902 27.368C237.115 27.368 237.965 26.7613 238.45 25.548C238.954 24.316 239.206 22.468 239.206 20.004C239.206 17.54 238.954 15.692 238.45 14.46C237.965 13.228 237.115 12.612 235.902 12.612C234.67 12.612 233.811 13.228 233.326 14.46C232.859 15.692 232.626 17.54 232.626 20.004Z" fill="#505050"/>
<path d="M12.6914 27.9141L0.84375 22.6523V20.6367L12.6914 14.707V18.1875L5.42578 21.5039L12.6914 24.457V27.9141Z" fill="#335C81"/>
<path d="M259.559 11.6211L253.172 29.2344H249.117L255.504 11.6211H259.559ZM260.461 23.457L267.727 20.5039L260.461 17.1875V13.707L272.309 19.6367V21.6523L260.461 26.9141V23.457Z" fill="#335C81"/>
</svg>

