<svg width="141" height="48" viewBox="0 0 141 48" fill="none" xmlns="http://www.w3.org/2000/svg">
<rect width="141" height="48" fill="white"/>
<path d="M1.8 33.3428H3.474V28.1048H5.652C8.55 28.1048 10.512 26.8088 10.512 24.0188C10.512 21.1388 8.532 20.1308 5.58 20.1308H1.8V33.3428ZM3.474 26.7548V21.4988H5.364C7.686 21.4988 8.856 22.1108 8.856 24.0188C8.856 25.9088 7.758 26.7548 5.436 26.7548H3.474ZM13.173 33.3428H20.985V31.9208H14.847V27.1148H19.851V25.6928H14.847V21.5528H20.787V20.1308H13.173V33.3428ZM23.7551 33.3428H25.4291V28.1048H27.6071C30.5051 28.1048 32.4671 26.8088 32.4671 24.0188C32.4671 21.1388 30.4871 20.1308 27.5351 20.1308H23.7551V33.3428ZM25.4291 26.7548V21.4988H27.3191C29.6411 21.4988 30.8111 22.1108 30.8111 24.0188C30.8111 25.9088 29.7131 26.7548 27.3911 26.7548H25.4291ZM35.1281 33.3428H36.8021V28.1048H38.9801C41.8781 28.1048 43.8401 26.8088 43.8401 24.0188C43.8401 21.1388 41.8601 20.1308 38.9081 20.1308H35.1281V33.3428ZM36.8021 26.7548V21.4988H38.6921C41.0141 21.4988 42.1841 22.1108 42.1841 24.0188C42.1841 25.9088 41.0861 26.7548 38.7641 26.7548H36.8021ZM46.5012 33.3428H54.3132V31.9208H48.1752V27.1148H53.1792V25.6928H48.1752V21.5528H54.1152V20.1308H46.5012V33.3428ZM57.0832 33.3428H58.7572V27.7448H61.1332L64.3372 33.3428H66.2272L62.8432 27.5648C64.6432 27.1328 65.8312 25.9088 65.8312 23.8568C65.8312 21.1028 63.9052 20.1308 61.2232 20.1308H57.0832V33.3428ZM58.7572 26.3948V21.4988H60.9712C63.0412 21.4988 64.1752 22.1108 64.1752 23.8568C64.1752 25.5668 63.0412 26.3948 60.9712 26.3948H58.7572ZM68.5266 33.3428H70.0386V26.0348C70.0386 24.9008 69.9126 23.2988 69.8406 22.1468H69.9126L70.9566 25.1528L73.4586 32.0108H74.5746L77.0766 25.1528L78.1206 22.1468H78.1926C78.1026 23.2988 77.9766 24.9008 77.9766 26.0348V33.3428H79.5426V20.1308H77.5266L75.0066 27.2048C74.7006 28.1228 74.4126 29.0408 74.1066 29.9588H74.0166C73.6926 29.0408 73.3866 28.1228 73.0806 27.2048L70.5426 20.1308H68.5266V33.3428ZM83.134 33.3428H84.808V20.1308H83.134V33.3428ZM88.4074 33.3428H89.9914V26.4128C89.9914 25.0268 89.8654 23.6228 89.7934 22.2908H89.8654L91.2874 25.0088L96.0934 33.3428H97.8034V20.1308H96.2194V27.0068C96.2194 28.3748 96.3454 29.8508 96.4354 31.1828H96.3454L94.9414 28.4648L90.1354 20.1308H88.4074V33.3428ZM104.152 33.3428H105.826V21.5528H109.822V20.1308H100.156V21.5528H104.152V33.3428ZM111.957 33.3428H119.193V31.9748H116.547V20.5088H115.287C114.567 20.9408 113.721 21.2468 112.551 21.4448V22.5068H114.891V31.9748H111.957V33.3428ZM125.361 33.5768C127.917 33.5768 129.465 31.1828 129.465 26.8808C129.465 22.5968 127.917 20.2748 125.361 20.2748C122.805 20.2748 121.239 22.5788 121.239 26.8808C121.239 31.1828 122.805 33.5768 125.361 33.5768ZM125.361 32.2628C123.849 32.2628 122.841 30.6428 122.841 26.8808C122.841 23.1188 123.849 21.5888 125.361 21.5888C126.855 21.5888 127.863 23.1188 127.863 26.8808C127.863 30.6428 126.855 32.2628 125.361 32.2628ZM135.346 33.5768C137.902 33.5768 139.45 31.1828 139.45 26.8808C139.45 22.5968 137.902 20.2748 135.346 20.2748C132.79 20.2748 131.224 22.5788 131.224 26.8808C131.224 31.1828 132.79 33.5768 135.346 33.5768ZM135.346 32.2628C133.834 32.2628 132.826 30.6428 132.826 26.8808C132.826 23.1188 133.834 21.5888 135.346 21.5888C136.84 21.5888 137.848 23.1188 137.848 26.8808C137.848 30.6428 136.84 32.2628 135.346 32.2628Z" fill="#6C6C6C"/>
<rect x="2" y="10" width="42" height="4" fill="#CDCDCD"/>
</svg>
